<?xml version="1.0" encoding="UTF-8" standalone="no"?>
<svg
   xmlns:dc="http://purl.org/dc/elements/1.1/"
   xmlns:cc="http://creativecommons.org/ns#"
   xmlns:rdf="http://www.w3.org/1999/02/22-rdf-syntax-ns#"
   xmlns:svg="http://www.w3.org/2000/svg"
   xmlns="http://www.w3.org/2000/svg"
   xmlns:sodipodi="http://sodipodi.sourceforge.net/DTD/sodipodi-0.dtd"
   xmlns:inkscape="http://www.inkscape.org/namespaces/inkscape"
   width="526.01019"
   height="161.66777"
   viewBox="0 0 526.01019 161.66777"
   version="1.1"
   id="svg43"
   sodipodi:docname="natrixBanner.svg"
   inkscape:version="0.92.2 2405546, 2018-03-11">
  <metadata
     id="metadata47">
    <rdf:RDF>
      <cc:Work
         rdf:about="">
        <dc:format>image/svg+xml</dc:format>
        <dc:type
           rdf:resource="http://purl.org/dc/dcmitype/StillImage" />
      </cc:Work>
    </rdf:RDF>
  </metadata>
  <sodipodi:namedview
     pagecolor="#ffffff"
     bordercolor="#666666"
     borderopacity="1"
     objecttolerance="10"
     gridtolerance="10"
     guidetolerance="10"
     inkscape:pageopacity="0"
     inkscape:pageshadow="2"
     inkscape:window-width="640"
     inkscape:window-height="480"
     id="namedview45"
     showgrid="false"
     inkscape:zoom="0.34302326"
     inkscape:cx="270.22412"
     inkscape:cy="-13.712556"
     inkscape:window-x="0"
     inkscape:window-y="34"
     inkscape:window-maximized="0"
     inkscape:current-layer="svg43" />
  <!-- Generator: Sketch 42 (36781) - http://www.bohemiancoding.com/sketch -->
  <title
     id="title2">Artboard</title>
  <desc
     id="desc4">Created with Sketch.</desc>
  <defs
     id="defs6" />
  <g
     id="Page-1"
     style="fill:none;fill-rule:evenodd;stroke:none;stroke-width:1"
     transform="translate(-77.275879,-52.009497)">
    <g
       id="Artboard">
      <path
         d="m 311.75679,69.205411 c 13.89441,0 53.67569,-6.586502 70.66272,-8.393484 16.98704,-1.806982 27.32587,-1.35989 58.70901,-4.8349 31.38313,-3.475009 37.63151,-1.985067 67.096,1.499526 19.61422,2.319659 38.94624,7.784751 55.1314,15.715591 16.18517,7.93084 12.6013,7.70501 23.91891,15.06956 5.60193,3.645271 9.30924,7.543522 11.49874,11.49669 6.65045,12.007466 -0.70236,24.521596 -11.49874,31.992016 -14.35083,9.92988 -16.96429,11.42551 -45.5023,21.38984 -28.53802,9.96433 -36.53778,12.79433 -58.70901,16.78697 -22.17123,3.99264 -56.18431,8.39348 -75.483,8.39348 -19.2987,0 -40.89266,-0.58671 -58.70901,-3.55873 -19.81505,-3.30543 -37.11472,-10.12741 -37.11472,-10.12741"
         id="Path"
         inkscape:connector-curvature="0"
         style="stroke:#000000;stroke-width:4" />
      <ellipse
         id="Oval"
         cx="439.91968"
         cy="96.642197"
         rx="32.709301"
         ry="32.314915"
         style="fill:#000000;stroke:#000000;stroke-width:3" />
      <ellipse
         id="ellipse10"
         cx="440.06049"
         cy="99.784622"
         rx="18.661076"
         ry="18.675503"
         style="fill:#000000;stroke:#f8e81c;stroke-width:3" />
      <path
         d="m 517.56206,160.34476 c 35.53906,-10.50841 51.33146,-15.00547 53.27227,-15.51864 1.94081,-0.51316 13.82374,-1.38565 13.82374,2.47575 0,3.86141 -5.08451,12.405 -16.774,21.43638 -11.6895,9.03137 -16.86063,10.37895 -33.54801,16.78697 -16.68737,6.40801 -20.9779,7.22369 -41.935,12.52638 -20.9571,5.3027 -17.43411,5.92646 -46.05906,8.3216 -28.62495,2.39515 -21.53839,2.14566 -54.58495,4.33247 -33.04655,2.18681 -37.45769,0 -83.87,0"
         id="Path-2"
         inkscape:connector-curvature="0"
         style="stroke:#000000;stroke-width:4" />
      <path
         d="m 463.971,76.359122 c 0,0 10.53076,-2.187875 13.81515,-4.896489 3.28439,-2.708614 15.48739,-3.262619 15.48739,-3.262619 0,0 6.45244,5.113996 7.71941,8.647861 1.26696,3.533865 -0.46124,18.459711 2.13376,22.189652 0.57148,0.821413 -5.57002,7.148273 -6.93058,12.031983 -1.36057,4.88371 -1.33066,9.85506 -2.3933,12.44918 -2.0545,5.01548 -8.73067,5.51958 -13.62977,5.63474 -4.8991,0.11515 -16.46652,-4.26188 -16.20206,-7.68443 0.26446,-3.42255 8.94121,-13.25903 8.26915,-22.431473 C 471.56809,89.865088 463.971,76.359122 463.971,76.359122 Z"
         id="Path-3"
         inkscape:connector-curvature="0"
         style="fill:#4990e2;stroke:#000000;stroke-width:4" />
      <path
         d="m 413.87256,72.237123 c 0.54079,-1.985719 -11.91662,-5.047464 -16.49738,-3.70915 -4.58076,1.338313 -10.2968,5.446655 -11.27611,9.631765 -0.97931,4.185109 -3.80089,8.541666 -5.53706,12.955799 -1.73616,4.414132 2.09797,22.480093 4.0259,24.939203 1.92794,2.45912 15.48995,11.68018 21.10499,14.0152 5.61505,2.33501 17.79375,0.93144 14.65895,2.37083 -3.13481,1.43939 3.29069,-3.11327 3.46081,-5.13574 0.14831,-1.7631 -10.59577,-8.50201 -11.80028,-11.25029 -1.2045,-2.74827 -8.5486,-20.498202 -6.31948,-28.002228 2.22913,-7.504025 7.00175,-11.49027 8.17966,-15.815389 z"
         id="Path-4"
         inkscape:connector-curvature="0"
         style="fill:#7ed321;stroke:#000000;stroke-width:4" />
      <path
         d="m 313.0467,83.670784 c 0,0 23.19017,-6.434398 27.74536,-6.434398 4.55519,0 3.30996,0 9.68186,0.598787 6.3719,0.598786 23.37939,9.796815 24.91483,11.089068 1.53544,1.292253 5.70326,1.292253 5.70326,1.292253 0.73778,4.893386 -0.73778,7.105378 0,11.998766 0.73778,4.89338 3.73057,12.74469 3.73057,12.74469 0,0 -11.99972,0.81757 -14.24727,0.81757 -2.24755,0 -8.05308,0.51818 -11.99844,-0.1497 -3.94536,-0.66787 -9.22545,-3.0579 -20.36604,-6.27574 -11.14059,-3.21784 -25.11555,-1.5635 -25.11555,-1.5635 z"
         id="Path-5"
         inkscape:connector-curvature="0"
         style="fill:#d0011b;stroke:#000000;stroke-width:4" />
      <path
         d="m 357.69524,118.94013 c -2.74999,2.69838 -2.49813,0.86108 -7.15816,7.13171 -2.66278,3.58309 -10.79275,17.59451 -16.13813,28.80061 -4.00936,8.40526 -5.87329,15.15775 -5.87329,15.15775 l 7.29495,2.161 c 0,0 23.66065,-35.51777 26.85171,-39.84874 3.19107,-4.33096 6.17629,-9.17627 6.17629,-9.17627 0,0 9.76752,-5.57333 9.76752,-5.57333 0,0 -18.1709,-1.35111 -20.92089,1.34727 z"
         id="Path-6"
         inkscape:connector-curvature="0"
         style="fill:#000000;stroke:#000000;stroke-width:4" />
      <path
         d="m 407.09971,131.10289 c -8.50439,11.06092 -11.49857,18.66602 -11.49857,29.61307 0,10.94705 2.54544,15.4904 2.54544,15.4904 0,0 -0.28702,-1.67992 1.47919,-5.45305 1.7662,-3.77312 4.66386,-1.67865 6.05228,-5.50679 0.54882,-1.51321 0.33496,-12.06146 3.35726,-17.39552 0.59558,-1.05113 3.5911,-6.48576 6.92036,-10.32651 3.32926,-3.84075 6.0037,-6.4216 6.0037,-6.4216 0,0 -4.05178,0.41847 -7.86771,0 -3.81593,-0.41847 -5.54189,-1.88597 -6.99195,0 z"
         id="Path-7"
         inkscape:connector-curvature="0"
         style="fill:#000000;stroke:#000000" />
      <path
         d="m 444.87756,132.43025 c 0,1.45859 -4.12946,4.16208 -4.12946,8.61076 0,4.44868 2.74488,20.68757 4.45036,24.06406 1.70548,3.37649 3.05043,5.40571 5.11644,5.40571 2.06601,0 5.99986,1.02741 4.61783,-2.18915 -1.38202,-3.21656 -3.29461,-6.46383 -3.29461,-14.98758 0,-8.52375 7.78077,-22.91639 7.78077,-25.17975 0,-2.26336 -14.54133,2.81737 -14.54133,4.27595 z"
         id="Path-8"
         inkscape:connector-curvature="0"
         style="fill:#000000;stroke:#000000" />
      <path
         d="m 483.31524,129.84329 c 3.86098,6.72995 5.2967,8.71567 5.2967,10.0655 0,1.34983 -0.59065,11.33345 0.76325,13.94866 1.3539,2.61521 1.19793,7.20463 3.16677,8.77069 1.96885,1.56606 3.50812,4.2977 5.03078,-1.24747 1.52266,-5.54518 -1.37819,-2.06249 -0.68909,-7.18416 0.68909,-5.12168 7.63247,-12.18813 6.04205,-14.15082 -1.59042,-1.96269 -4.32251,-0.6538 -6.26706,-3.80511 -1.94456,-3.1513 -4.42607,-11.22981 -4.42607,-9.77634 0,1.45346 -3.8303,2.45016 -3.8303,2.45016 0,0 -1.22605,0.92889 -5.08703,0.92889 z"
         id="Path-9"
         inkscape:connector-curvature="0"
         style="fill:#000000;stroke:#000000" />
      <polyline
         id="Path-10"
         points="493.634546 126.063362 510.61519 127.60383 519.210346 123.709158 556.748794 124.746799 562.352329 134.611426 562.095357 144.501641"
         style="stroke:#000000;stroke-width:4" />
      <polyline
         id="Path-11"
         points="313.0467 191.058721 325.252257 193.937503 336.42481 199.277963 374.249635 201.624491 383.251345 203.752231 447.491925 196.372313 473.395013 192.377843 500.758115 185.526341 530.964535 173.376602 538.765761 173.8065 545.218201 176.229795 561.286017 166.441936 563.413392 146.945544"
         style="stroke:#000000;stroke-width:4" />
      <polyline
         id="Path-12"
         points="353.995599 175.345571 327.125987 195.10809 334.489976 200.014814 326.99814 205.444837 323.366006 210.758429"
         style="stroke:#000000;stroke-width:4" />
      <polyline
         id="Path-13"
         points="395.377782 176.636482 374.610309 200.673672 382.722204 203.393801 362.063401 211.10254"
         style="stroke:#000000;stroke-width:4" />
      <path
         d="m 446.7683,174.05466 c 0,0 -3.44037,7.30955 -3.44037,13.1989 0,5.88935 2.93281,10.21775 2.93281,10.21775 l 22.7491,-3.69635 -4.5961,5.3443 -18.153,6.77089"
         id="Path-14"
         inkscape:connector-curvature="0"
         style="stroke:#000000;stroke-width:4" />
      <path
         d="m 550.29564,153.4001 c 2.11331,7.75224 0.12145,15.3036 0.12145,15.3036 l -10.40803,7.32362 3.82646,2.21475 -87.60846,28.81085"
         id="Path-15"
         inkscape:connector-curvature="0"
         style="stroke:#000000;stroke-width:4" />
      <path
         d="m 498.7942,165.01829 c 0,4.51521 3.278,20.05551 3.278,20.05551"
         id="Path-16"
         inkscape:connector-curvature="0"
         style="stroke:#000000;stroke-width:4" />
      <path
         d="m 531.6399,173.22714 c 0,0 3.1455,-7.23662 2.17084,-9.43729 -0.97466,-2.20067 -19.53758,-38.05494 -19.53758,-38.05494 l 6.13793,-3.83198 0.74535,-21.80965 11.01786,-9.947791 21.9654,0.974948 21.43867,7.756078 -1.46896,7.648605 -15.95276,15.85249"
         id="Path-17"
         inkscape:connector-curvature="0"
         style="stroke:#000000;stroke-width:4" />
      <path
         d="m 576.79728,100.2123 5.64062,-3.773121 0.87319,-6.085106 c 0,0 -19.51201,-16.2133 -32.60099,-17.757607 -15.784,-12.697348 -51.82536,-16.008587 -58.65367,-9.086716 -7.68105,-1.617235 -27.17517,-6.921871 -31.51302,-6.921871 -4.33785,0 -33.16224,-0.299394 -45.59025,3.311239 -12.42801,3.610632 -15.48228,8.693922 -15.48228,8.693922"
         id="Path-18"
         inkscape:connector-curvature="0"
         style="stroke:#000000;stroke-width:4" />
      <path
         d="m 502.66394,97.990739 c 4.19849,0 16.36825,2.764911 16.36825,2.764911 l 12.67476,-9.984896 -0.55486,-4.918239 c 0,0 5.77997,-11.515128 17.88836,-13.77977"
         id="Path-19"
         inkscape:connector-curvature="0"
         style="stroke:#000000;stroke-width:4" />
      <path
         d="m 492.34463,63.036372 1.74767,4.529284"
         id="Path-20"
         inkscape:connector-curvature="0"
         style="stroke:#000000;stroke-width:4" />
      <path
         d="M 333.48049,79.438134 C 325.06816,70.727579 313.0467,72.160573 313.0467,72.160573"
         id="Path-21"
         inkscape:connector-curvature="0"
         style="stroke:#000000;stroke-width:4" />
      <text
         id="NATRIX"
         font-size="64"
         font-weight="normal"
         style="font-weight:normal;font-size:64px;font-family:Roboto-Regular, Roboto">
        <tspan
           x="76"
           y="136"
           id="tspan32"
           style="fill:#b8e986">N</tspan>
        <tspan
           x="122.1875"
           y="136"
           id="tspan34"
           style="fill:#000000">ATRIX</tspan>
      </text>
      <ellipse
         id="Oval-2"
         cx="543.12097"
         cy="104.60574"
         rx="6.9192753"
         ry="6.7147875"
         style="fill:#000000;stroke:#000000;stroke-width:4" />
      <text
         id="Python-for-Event-bas"
         font-size="13"
         font-weight="normal"
         style="font-weight:normal;font-size:13px;font-family:Roboto-Regular, Roboto;fill:#b8e986">
        <tspan
           x="76"
           y="165"
           id="tspan38">Python for Event-based programming</tspan>
      </text>
    </g>
  </g>
</svg>
